# xmcd CD database file
#
# Track frame offsets:
#	150
#	19850
#	39608
#
# Disc length: 781 seconds
#
# Revision: 0
# Processed by: cddbd v1.5.1PL0 Copyright (c) Steve Scherf et al.
# Submitted via: CDex 1.51
#
DISCID=1d030b03
DTITLE=島田奈美 - TRYING BIRD
DYEAR=1988
DGENRE=JPop
TTITLE0=Curiosity Girl
TTITLE1=NO!
TTITLE2=パウダー・スノーの妖精
EXTD=YEAR: 1988
EXTT0=
EXTT1=
EXTT2=
PLAYORDER=
